<?xml version="1.0" encoding="utf-8"?>
<!-- Generator: Adobe Illustrator 21.1.0, SVG Export Plug-In . SVG Version: 6.00 Build 0)  -->
<svg version="1.1" id="Layer_1" xmlns="http://www.w3.org/2000/svg" xmlns:xlink="http://www.w3.org/1999/xlink" x="0px" y="0px"
	 viewBox="0 0 512 512" style="enable-background:new 0 0 512 512;" xml:space="preserve">
<style type="text/css">
	.st0{fill:#86B5A8;}
	.st1{fill:#507C74;}
	.st2{fill:#77B7AB;}
	.st3{fill:#DFEAE6;}
	.st4{fill:#6DADA1;}
	.st5{fill:#32544B;}
	.st6{fill:#3E3D42;}
	.st7{fill:#81C6B9;}
	.st8{fill:#91BFBA;}
</style>
<path class="st0" d="M198.4,34.8c0,0,6.5-34.8,37.9-34.8c0,0.6,143.1,0,143.1,0s124.5,3.7,128,171.2
	C507.7,171.3,198.4,34.8,198.4,34.8z"/>
<path class="st1" d="M480,63.2c-30.2-30.4-72.1-49.3-118.3-49.3H208c-7.5,9.7-9.6,20.9-9.6,20.9s309.3,136.4,309,136.4
	C506.4,122.8,495.3,88.1,480,63.2z"/>
<path class="st0" d="M367.1,219.6c0,0-3.6-34.8-43.8-34.8H181.2c0,0-137.5-2.1-137.5,181.2L367.1,219.6z"/>
<path class="st1" d="M43.7,366l323.5-146.4c0,0-1.1-10.9-9.1-20.5H189.7c-45.5,0-86.9,18.3-117,48C55.7,273.7,43.7,311.7,43.7,366z"
	/>
<path class="st2" d="M361.7,34.8H198.4c-29.5,0-53.4,23.9-53.4,53.4s23.9,53.4,53.4,53.4h163.3c21.6,0,39.1,17.6,39.1,39.1
	S383.3,220,361.7,220h-172c-80.5,0-146,65.5-146,146s65.5,146,146,146h98.9c67.2,0,100.2-30.6,112.2-45.5c4.9-7.3,1.1-14.2-1.2-17.3
	c-33.7-40.9-95.4-43.9-108.5-44.1H189.7c-21.6,0-39.1-17.6-39.1-39.1c0-21.6,17.6-39.1,39.1-39.1h172c80.5,0,146-65.5,146-146
	S442.2,34.8,361.7,34.8z"/>
<path class="st3" d="M361.8,111.3H198.4c-24.2,0-44.6-16.1-51.2-38.1c-1.5,4.9-2.2,10-2.2,15.3c0,29.5,23.9,53.4,53.4,53.4h163.3
	c16.1,0,30,9.8,36,23.8c2-4.7,3.1-9.9,3.1-15.3C400.9,128.9,383.3,111.3,361.8,111.3z"/>
<path class="st4" d="M189.7,326.9h172c80.5,0,146-65.5,146-146s-65.5-146-146-146H198.4c-29.2,0-53,23.5-53.4,52.6h216.7
	c51.5,0,93.4,41.9,93.4,93.4s-41.9,93.4-93.4,93.4h-172c-50.6,0-91.7,41.1-91.7,91.7s41.1,91.7,91.7,91.7h213.5
	c-0.4-3.7-2.2-6.7-3.5-8.5c-33.7-40.9-95.4-43.9-108.5-44.1H189.7c-21.6,0-39.1-17.5-39.1-39.1C150.6,344.4,168.1,326.9,189.7,326.9
	z"/>
<path class="st1" d="M399.7,449.2c-33.7-40.9-95.4-43.9-108.5-44.1H189.7c-16.1,0-30-9.8-36-23.8c-2,4.7-3.1,9.9-3.1,15.3
	c0,21.6,17.6,39.1,39.1,39.1h101.4c10.2,0.1,49.6,2,82.6,22h29.5C402.8,454,401,451,399.7,449.2z"/>
<path class="st0" d="M190.8,34.7h-67.6c-2.8,0-104.1,2.1-111.1,48.3l47.8,20.9l-30.1,14c31,21.2,91.2,23.7,93.3,23.7h67.6
	c29.4,0,53.4-24,53.4-53.4C244.3,58.8,220.2,34.7,190.8,34.7z"/>
<path class="st4" d="M190.8,113h-67.6c0,0-49-0.8-63.3-9.1l-30.1,14c31,21.2,91.2,23.7,93.3,23.7h67.6c29.4,0,53.4-24,53.4-53.4
	c0-5-0.7-9.7-2-14.3C236,96.4,215.3,113,190.8,113z"/>
<path class="st5" d="M22.8,121.2c-1.8-3.9-0.1-8.6,3.8-10.4l30.1-14c3.9-1.8,8.6-0.1,10.4,3.8c1.8,3.9,0.1,8.6-3.8,10.4l-30.1,14
	C32.1,125.5,25.3,126.9,22.8,121.2z"/>
<path class="st1" d="M180.5,80c12.5,2.9,20.2,15.4,17.3,27.9s-15.4,20.2-27.9,17.3c-12.5-2.9-31.1-18-28.2-30.4
	C144.6,82.3,168,77.1,180.5,80z"/>
<g>
	<path class="st1" d="M182.8,110.9c-11.7-2.7-28.8-16.1-28.5-28c-6.3,2.6-11.3,6.6-12.6,12c-2.9,12.5,15.7,27.5,28.2,30.4
		c12,2.8,23.9-4.2,27.5-15.7C192.9,111.5,187.9,112,182.8,110.9z"/>
	<path class="st1" d="M56.8,111.1L9,90.2c-4-1.7-5.8-6.4-4-10.3c1.7-4,6.4-5.8,10.3-4l47.8,20.9c4,1.7,5.6,6.3,4,10.3
		C65,112.6,57.8,111.6,56.8,111.1z"/>
</g>
<path class="st6" d="M74.5,78.1c-2.4,0-4.8-1-6.5-2.7c-1.7-1.7-2.7-4.1-2.7-6.5c0-2.4,1-4.8,2.7-6.5c1.7-1.7,4.1-2.7,6.5-2.7
	c2.4,0,4.8,1,6.5,2.7c1.7,1.7,2.7,4.1,2.7,6.5s-1,4.8-2.7,6.5C79.3,77.1,77,78.1,74.5,78.1z"/>
<g>
	<path class="st7" d="M316.2,63.4c-2.4,0-4.8-1-6.5-2.7c-1.7-1.7-2.7-4.1-2.7-6.5c0-2.4,1-4.8,2.7-6.5c1.7-1.7,4.1-2.7,6.5-2.7
		c2.4,0,4.8,1,6.5,2.7c1.7,1.7,2.7,4.1,2.7,6.5c0,2.4-1,4.8-2.7,6.5C321,62.4,318.7,63.4,316.2,63.4z"/>
	<path class="st7" d="M357.9,72.6c-2.4,0-4.8-1-6.5-2.7c-1.7-1.7-2.7-4.1-2.7-6.5c0-2.4,1-4.8,2.7-6.5c1.7-1.7,4.1-2.7,6.5-2.7
		c2.4,0,4.8,1,6.5,2.7c1.7,1.7,2.7,4.1,2.7,6.5s-1,4.8-2.7,6.5C362.7,71.6,360.4,72.6,357.9,72.6z"/>
	<path class="st7" d="M403.2,72.6c-2.4,0-4.8-1-6.5-2.7c-1.7-1.7-2.7-4.1-2.7-6.5c0-2.4,1-4.8,2.7-6.5c1.7-1.7,4.1-2.7,6.5-2.7
		c2.4,0,4.8,1,6.5,2.7c1.7,1.7,2.7,4.1,2.7,6.5s-1,4.8-2.7,6.5C408,71.6,405.6,72.6,403.2,72.6z"/>
	<path class="st7" d="M316.2,304.6c-2.4,0-4.8-1-6.5-2.7c-1.7-1.7-2.7-4.1-2.7-6.5c0-2.4,1-4.8,2.7-6.5c1.7-1.7,4.1-2.7,6.5-2.7
		c2.4,0,4.8,1,6.5,2.7c1.7,1.7,2.7,4.1,2.7,6.5s-1,4.8-2.7,6.5C321,303.6,318.7,304.6,316.2,304.6z"/>
	<path class="st7" d="M357.9,313.8c-2.4,0-4.8-1-6.5-2.7c-1.7-1.7-2.7-4.1-2.7-6.5c0-2.4,1-4.8,2.7-6.5c1.7-1.7,4.1-2.7,6.5-2.7
		c2.4,0,4.8,1,6.5,2.7c1.7,1.7,2.7,4.1,2.7,6.5s-1,4.8-2.7,6.5C362.7,312.8,360.4,313.8,357.9,313.8z"/>
	<path class="st7" d="M128.2,352c-2.4,0-4.8-1-6.5-2.7c-1.7-1.7-2.7-4.1-2.7-6.5c0-2.4,1-4.8,2.7-6.5c1.7-1.7,4.1-2.7,6.5-2.7
		c2.4,0,4.8,1,6.5,2.7c1.7,1.7,2.7,4.1,2.7,6.5c0,2.4-1,4.8-2.7,6.5C133,351,130.6,352,128.2,352z"/>
	<path class="st7" d="M128.2,384.4c-2.4,0-4.8-1-6.5-2.7c-1.7-1.7-2.7-4.1-2.7-6.5c0-2.4,1-4.8,2.7-6.5c1.7-1.7,4.1-2.7,6.5-2.7
		c2.4,0,4.8,1,6.5,2.7c1.7,1.7,2.7,4.1,2.7,6.5c0,2.4-1,4.8-2.7,6.5C133,383.4,130.6,384.4,128.2,384.4z"/>
	<path class="st7" d="M478.4,194c-2.4,0-4.8-1-6.5-2.7c-1.7-1.7-2.7-4.1-2.7-6.5c0-2.4,1-4.8,2.7-6.5c1.7-1.7,4.1-2.7,6.5-2.7
		c2.4,0,4.8,1,6.5,2.7c1.7,1.7,2.7,4.1,2.7,6.5c0,2.4-1,4.8-2.7,6.5C483.2,193,480.8,194,478.4,194z"/>
	<path class="st7" d="M469.2,237.1c-2.4,0-4.8-1-6.5-2.7c-1.7-1.7-2.7-4.1-2.7-6.5c0-2.4,1-4.8,2.7-6.5c1.7-1.7,4.1-2.7,6.5-2.7
		c2.4,0,4.8,1,6.5,2.7c1.7,1.7,2.7,4.1,2.7,6.5c0,2.4-1,4.8-2.7,6.5C474,236.2,471.6,237.1,469.2,237.1z"/>
	<path class="st7" d="M275.7,313.8c-2.4,0-4.8-1-6.5-2.7c-1.7-1.7-2.7-4.1-2.7-6.5c0-2.4,1-4.8,2.7-6.5c1.7-1.7,4.1-2.7,6.5-2.7
		c2.4,0,4.8,1,6.5,2.7c1.7,1.7,2.7,4.1,2.7,6.5s-1,4.8-2.7,6.5C280.5,312.8,278.1,313.8,275.7,313.8z"/>
</g>
<g>
	<path class="st8" d="M135.9,258.6c-1.7-4,0.2-8.6,4.2-10.3c15.8-6.7,32.5-10.1,49.7-10.1c4.3,0,7.8,3.5,7.8,7.8
		c0,4.3-3.5,7.8-7.8,7.8c-15.1,0-29.8,3-43.6,8.8C145.1,263.2,138.4,264.9,135.9,258.6z"/>
	<path class="st8" d="M222,253.9h-11.5c-4.3,0-7.8-3.5-7.8-7.8c0-4.3,3.5-7.8,7.8-7.8H222c4.3,0,7.8,3.5,7.8,7.8
		C229.8,250.4,226.3,253.9,222,253.9z"/>
</g>
</svg>
