<?xml version="1.0" encoding="utf-8"?>
<!-- Generator: Adobe Illustrator 21.1.0, SVG Export Plug-In . SVG Version: 6.00 Build 0)  -->
<svg version="1.1" id="Layer_1" xmlns="http://www.w3.org/2000/svg" xmlns:xlink="http://www.w3.org/1999/xlink" x="0px" y="0px"
	 viewBox="0 0 512 512" style="enable-background:new 0 0 512 512;" xml:space="preserve">
<style type="text/css">
	.st0{fill:#C0C0C6;}
	.st1{fill:#9E9EA6;}
	.st2{fill:#AC8A67;}
	.st3{fill:#FFEBD2;}
	.st4{fill:#6D6A66;}
	.st5{fill:#FFFFFF;}
	.st6{fill:#464655;}
</style>
<g>
	<path class="st0" d="M223.5,97.5C211.3,63,186.9,0,158.5,0c-17.7,0-63.7,40.9-95.9,71.8c-4.2,4,0.9,10.7,5.9,7.7
		C96.9,62.4,133,44,150.4,48.8c7.4,2,24.4,81.3,24.4,81.3L223.5,97.5z"/>
	<path class="st0" d="M288.5,97.5C300.7,63,325.1,0,353.5,0c17.7,0,63.7,40.9,95.9,71.8c4.2,4-0.9,10.7-5.9,7.7
		C415.1,62.4,379,44,361.7,48.8c-7.4,2-24.4,81.3-24.4,81.3L288.5,97.5z"/>
</g>
<path class="st1" d="M85.3,228c40.6-41.1,65-0.4,65-0.4v-56.9l-65,24.4C85.3,195,85.3,228,85.3,228z"/>
<path class="st0" d="M4.1,219.3c0,21.3,67.4,56.9,91.4,8.1c25.6-52.1,54.9-48.8,54.9-48.8v-16.3C87.1,162.4,4.1,199,4.1,219.3z"/>
<path class="st1" d="M426.7,228c-40.6-41.1-65-0.4-65-0.4v-56.9l65,24.4V228z"/>
<path class="st0" d="M507.9,219.3c0,21.3-67.4,56.9-91.4,8.1c-25.6-52.1-54.9-48.8-54.9-48.8v-16.3
	C424.9,162.4,507.9,199,507.9,219.3z"/>
<path class="st2" d="M142.2,211.2c0,73.1,56.9,227.7,56.9,227.7c8.1,36.6,25.5,56.9,56.9,56.9s48.8-23,56.9-56.9
	c0,0,56.9-153.2,56.9-227.7H142.2z"/>
<path class="st3" d="M271.2,94.8c-4.8,2.3-10,3.5-15.2,3.5c-5.2,0-10.4-1.2-15.2-3.5c-66-32.4-139.7,104.4-90.6,124.5
	c0,0,48.9,8.2,48.9,32.6s8.1,186.9,8.1,186.9H256h48.8c0,0,8.1-162.5,8.1-186.9s48.9-32.6,48.9-32.6
	C410.8,199.2,337.2,62.5,271.2,94.8z"/>
<path class="st2" d="M330.3,104.6c-17.9-13.7-38.9-19.7-59.2-9.8c-4.8,2.3-10,3.5-15.2,3.5c-5.2,0-10.4-1.2-15.2-3.5
	c-20.3-9.9-41.2-3.9-59.2,9.8c-11.1,67,41.8,83.7,41.8,123c0,16.3,0,130,0,170.7H256h32.5c0-40.6,0-154.4,0-170.7
	C288.5,188.3,341.4,171.6,330.3,104.6z"/>
<ellipse class="st4" cx="256" cy="479.5" rx="40.6" ry="32.5"/>
<path class="st5" d="M256,349.5L256,349.5c-14.6,0-27.6,9.3-32.1,23.2c-9.6,29.6-24.8,78.3-24.8,90.5c0,18,14.6,32.5,32.5,32.5
	c5.9,0,11.3-1.6,16-4.3c5.2-3,11.5-3,16.7,0c4.7,2.7,10.2,4.3,16,4.3c18,0,32.5-14.6,32.5-32.5c0-12.3-15.2-61-24.8-90.5
	C283.6,358.8,270.6,349.5,256,349.5z"/>
<g>
	<circle class="st6" cx="182.9" cy="235.7" r="16.3"/>
	<circle class="st6" cx="329.1" cy="235.7" r="16.3"/>
	<path class="st6" d="M296.1,425.1c0.1-0.4,0.4-0.9,0.5-1.3c0.1-0.8,0-1.5-0.1-2.3c0-0.3,0-0.5,0-0.8c-0.1-0.5-0.5-1-0.7-1.4
		c-0.2-0.5-0.4-1-0.7-1.5l0,0v0c-2.5-3.4-7.2-4.1-10.7-1.9c-0.2,0.1-0.5,0.2-0.7,0.3l-1.9,1.5c-0.4,0.3-0.8,0.6-1.2,0.9
		c-14.4,10.8-34.5,10.9-48.9,0.1l-3.3-2.4c-1.7-1.3-3.8-1.8-5.8-1.5c-0.1,0-0.1,0-0.2,0c-0.4,0.1-0.8,0.3-1.2,0.4
		c-1.6,0.5-3.1,1.3-4.1,2.7c-2.7,3.6-2,8.7,1.6,11.4l3.3,2.4c0,0,0,0,0,0l29.2,21.9c1.4,1.1,3.2,1.6,4.9,1.6c1.6,0,3.1-0.5,4.5-1.4
		c1.8-1.2,20.5-15.3,29.8-22.3c0,0,0,0,0,0l3.1-2.3l0,0c0,0,0,0,0,0c0.1-0.1,0.2-0.3,0.3-0.4c0.7-0.6,1.3-1.3,1.8-2
		C295.8,426.2,295.9,425.6,296.1,425.1z"/>
</g>
</svg>
