<?xml version="1.0" encoding="utf-8"?>
<!-- Generator: Adobe Illustrator 16.0.0, SVG Export Plug-In . SVG Version: 6.00 Build 0)  -->
<!DOCTYPE svg PUBLIC "-//W3C//DTD SVG 1.1//EN" "http://www.w3.org/Graphics/SVG/1.1/DTD/svg11.dtd">
<svg version="1.1" xmlns="http://www.w3.org/2000/svg" xmlns:xlink="http://www.w3.org/1999/xlink" x="0px" y="0px" width="800px"
	 height="800px" viewBox="0 0 800 800" enable-background="new 0 0 800 800" xml:space="preserve">
<g id="Capa_2" display="none">
	<rect x="2" y="1" display="inline" fill="#F2F2F2" width="800" height="800"/>
</g>
<g id="Capa_1">
	<g>
		<linearGradient id="SVGID_1_" gradientUnits="userSpaceOnUse" x1="406.5" y1="580" x2="406.5" y2="189.9612">
			<stop  offset="0" style="stop-color:#22C7CF"/>
			<stop  offset="1" style="stop-color:#80E5EA"/>
		</linearGradient>
		<path fill="url(#SVGID_1_)" d="M573,336v100c0,82.84-67.16,150-150,150H280c-15.79,0-29.44-9.15-35.94-22.43
			C241.46,558.26,240,552.3,240,546V226c0-6.3,1.46-12.26,4.06-17.57C250.56,195.15,264.21,186,280,186h143
			C505.84,186,573,253.16,573,336z"/>
		<path fill="none" stroke="#6136D9" stroke-width="50" stroke-linecap="round" stroke-miterlimit="10" d="M216.243,370.846"/>
		<g>
			<g>
				<linearGradient id="SVGID_2_" gradientUnits="userSpaceOnUse" x1="216.2861" y1="529.2695" x2="659.542" y2="86.0137">
					<stop  offset="0" style="stop-color:#0B308D"/>
					<stop  offset="1" style="stop-color:#3563D7"/>
				</linearGradient>
				<path fill="url(#SVGID_2_)" d="M193.667,542c-8.958,0-17.915-3.417-24.749-10.251c-13.668-13.669-13.668-35.829,0-49.498
					l93.934-93.934c5.855-6.292,30.976-30.819,67.711-32.043c17.95-0.6,45.05,4.381,72.171,31.5
					c13.668,13.668,13.668,35.829,0,49.497c-13.668,13.67-35.829,13.669-49.498,0.001c-7.523-7.523-14.385-11.225-20.342-11.037
					c-9.266,0.309-18.332,9.244-18.41,9.334l-0.768,0.878l-95.3,95.302C211.582,538.583,202.625,542,193.667,542z"/>
			</g>
			<g>
				<linearGradient id="SVGID_3_" gradientUnits="userSpaceOnUse" x1="274.6318" y1="587.6162" x2="717.8877" y2="144.3604">
					<stop  offset="0" style="stop-color:#0B308D"/>
					<stop  offset="1" style="stop-color:#3563D7"/>
				</linearGradient>
				<path fill="url(#SVGID_3_)" d="M426.692,469c-0.058,0-0.114,0-0.172,0c-41.177-1-70.207-28.385-73.381-31.584l49.693-49.423
					c0,0-0.105-0.172-0.314-0.372c2.059,1.965,9.176,7.547,17.27,9.879c6.854,1.974,15.492,2.352,27.556-9.71
					c13.668-13.668,35.829-13.676,49.497-0.008c13.669,13.668,13.669,36.066,0.001,49.734C471.036,463.321,444.482,469,426.692,469z
					"/>
			</g>
			<g>
				<linearGradient id="SVGID_4_" gradientUnits="userSpaceOnUse" x1="285.8179" y1="598.7988" x2="729.0704" y2="155.5463">
					<stop  offset="0" style="stop-color:#0B308D"/>
					<stop  offset="1" style="stop-color:#3563D7"/>
				</linearGradient>
				<path fill="url(#SVGID_4_)" d="M472.092,447.523c-8.958,0-17.914-3.416-24.749-10.251c-13.668-13.669-13.668-35.83,0.001-49.498
					l131.718-131.717c13.669-13.668,35.829-13.668,49.498,0c13.668,13.668,13.668,35.829-0.001,49.498L496.841,437.272
					C490.007,444.105,481.048,447.523,472.092,447.523z"/>
			</g>
			<g>
				<linearGradient id="SVGID_5_" gradientUnits="userSpaceOnUse" x1="308.0107" y1="620.9912" x2="751.2632" y2="177.7388">
					<stop  offset="0" style="stop-color:#0B308D"/>
					<stop  offset="1" style="stop-color:#3563D7"/>
				</linearGradient>
				<path fill="url(#SVGID_5_)" d="M619.5,375.5c-11.874,0-21.5-9.626-21.5-21.5v-89c0-11.874,9.626-21.5,21.5-21.5
					S641,253.126,641,265v89C641,365.874,631.374,375.5,619.5,375.5z"/>
			</g>
			<g>
				<linearGradient id="SVGID_6_" gradientUnits="userSpaceOnUse" x1="263.0112" y1="575.9902" x2="706.2626" y2="132.7388">
					<stop  offset="0" style="stop-color:#0B308D"/>
					<stop  offset="1" style="stop-color:#3563D7"/>
				</linearGradient>
				<path fill="url(#SVGID_6_)" d="M619,286h-89c-11.874,0-21.5-9.626-21.5-21.5S518.126,243,530,243h89
					c11.874,0,21.5,9.626,21.5,21.5S630.874,286,619,286z"/>
			</g>
			<g>
				<linearGradient id="SVGID_7_" gradientUnits="userSpaceOnUse" x1="285.6299" y1="598.6631" x2="728.879" y2="155.4139">
					<stop  offset="0" style="stop-color:#0B308D"/>
					<stop  offset="1" style="stop-color:#3563D7"/>
				</linearGradient>
				<path fill="url(#SVGID_7_)" d="M618.68,375.5c-5.502,0-11.005-2.099-15.203-6.297l-88.387-88.386
					c-8.396-8.396-8.396-22.009,0-30.405c8.396-8.396,22.01-8.396,30.406,0l88.387,88.386c8.396,8.396,8.396,22.009,0,30.405
					C629.685,373.401,624.182,375.5,618.68,375.5z"/>
			</g>
		</g>
	</g>
</g>
</svg>
