<?xml version="1.0" encoding="utf-8"?>
<!-- Generator: Adobe Illustrator 21.1.0, SVG Export Plug-In . SVG Version: 6.00 Build 0)  -->
<svg version="1.1" id="Layer_1" xmlns="http://www.w3.org/2000/svg" xmlns:xlink="http://www.w3.org/1999/xlink" x="0px" y="0px"
	 viewBox="0 0 512 512" style="enable-background:new 0 0 512 512;" xml:space="preserve">
<style type="text/css">
	.st0{fill:#F72349;}
	.st1{fill:#AA3E51;}
	.st2{fill:#325763;}
	.st3{fill:#05232E;}
	.st4{fill:#FB5858;}
</style>
<polygon class="st0" points="222.6,122.2 205.2,106.5 189.2,122.2 189.2,191.6 222.6,191.6 "/>
<polygon class="st1" points="322.8,122.2 307.6,106.5 289.4,122.2 289.4,193.1 322.8,193.1 "/>
<rect x="189.2" y="88.8" class="st2" width="33.4" height="33.4"/>
<rect x="289.4" y="88.8" class="st3" width="33.4" height="33.4"/>
<g>
	<path class="st0" d="M91.5,211.2H66.8v-77.9C11.5,133.3,0,166.7,0,166.7v-1c0,0,0,25.4,0,56.4c0,31,21.7,56.4,48.2,56.4h37.5
		c20.8,0,42.4-8.7,42.4-31.7C128,225.2,106.5,211.2,91.5,211.2z"/>
	<path class="st0" d="M12.3,332.6L23.8,364l102.7-37.9c-4.9-9.9-8.2-19.5-11.1-30.4L12.3,332.6z"/>
	<path class="st0" d="M134.7,342.4l-83.4,69.2l21.5,25.6l84.2-69.6C148.9,360,141.1,351.6,134.7,342.4z"/>
	<path class="st0" d="M117.8,474.9c35.5,20.6,58.2,29.3,82.1,34.3l6.9-32.7c-14.9-3.1-29.3-8-43-14.4l40.6-70.6
		c-10.3-4.4-18.3-10.1-27.5-16.3L117.8,474.9z"/>
</g>
<g>
	<path class="st1" d="M488.2,364l11.4-31.4l-109.7-39.9c-2.9,10.9-6.2,21.3-11.1,31.2L488.2,364z"/>
	<path class="st1" d="M352.1,363.2l87.1,74l21.5-25.6l-87.1-72.9C367.2,347.9,360.1,355.5,352.1,363.2z"/>
	<path class="st1" d="M348.2,462.1c-13.7,6.4-28.1,11.3-43,14.4l6.9,32.7c23.8-5,46.6-13.7,82.1-34.3L335,372.1
		c-9.2,6.2-17.9,12-28.2,16.3L348.2,462.1z"/>
</g>
<path class="st0" d="M420.5,211.2c-5.7-19.6-14.9-37.7-26.7-53.7H256l-85,138.2l85,135.1c23.6,0,46-4.8,66.5-13.4
	c10.3-4.4,20.2-9.7,29.4-15.9c8.1-5.5,15.8-11.7,22.9-18.5c8-7.7,15.3-16.2,21.7-25.4c5-7.1,9.4-14.5,13.3-22.3
	c4.9-9.9,8.9-20.4,11.8-31.2c2.3-8.4,3.9-17,4.9-25.8C427,251.9,420.5,211.2,420.5,211.2z"/>
<path class="st4" d="M118.2,157.5c-11.9,16-21,34.1-26.7,53.7c-4.5,15.3-6.9,31.5-6.9,48.2c0,6.4,0.4,12.7,1.1,19
	c1,8.8,2.6,17.4,4.9,25.8c2.9,10.9,6.9,21.3,11.8,31.2c3.9,7.8,8.3,15.3,13.3,22.3c6.4,9.1,13.7,17.6,21.7,25.4
	c7.1,6.8,14.7,13,22.9,18.5c9.2,6.2,19,11.6,29.4,15.9c20.4,8.6,42.9,13.4,66.5,13.4V157.5H118.2z"/>
<g>
	<rect x="144.7" y="190.9" class="st0" width="33.4" height="33.4"/>
	<rect x="189.2" y="235.4" class="st0" width="33.4" height="33.4"/>
</g>
<path class="st4" d="M33.4,166.7c18.4,0,33.4-14.9,33.4-33.4V99.9L33.4,2.8C15,2.8,0,17.8,0,36.2l0,129.4v1
	C0,166.7,15,166.7,33.4,166.7z"/>
<path class="st0" d="M66.8,99.9V36.2c0-18.4-15-33.4-33.4-33.4v97.1C33.4,99.9,66.8,99.9,66.8,99.9z"/>
<path class="st1" d="M512,166.7c0,0-20.4-33.4-66.8-33.4v77.9h-29.6v67.2c0,0,4,0,10.7,0h37.5c26.5,0,48.2-25.4,48.2-56.4
	c0-31,0-56.4,0-56.4C512,165.6,512,166.7,512,166.7z"/>
<path class="st0" d="M478.6,166.7c18.4,0,33.4,0,33.4,0v-1l0-129.4c0-18.4-15-33.4-33.4-33.4l-33.4,97.1v33.4
	C445.2,151.7,460.2,166.7,478.6,166.7z"/>
<path class="st1" d="M478.6,2.8c-18.4,0-33.4,14.9-33.4,33.4v63.7h33.4V2.8z"/>
</svg>
