<svg id="Capa_1" data-name="Capa 1" xmlns="http://www.w3.org/2000/svg" viewBox="0 0 880.59 227.8"><defs><style>.cls-1{fill:none;stroke:#4700d6;}.cls-1,.cls-2{stroke-miterlimit:10;stroke-width:9px;}.cls-2{fill:#5b5b5f;stroke:#4a72b2;}.cls-3{font-size:200px;fill:#444242;font-family:NewslabMedium, Newslab;}</style></defs><title>demos-logo-02</title><path class="cls-1" d="M626.41,556.73a77,77,0,0,1-10.79,14,76.07,76.07,0,0,1-54.62,23h-18.5A18.49,18.49,0,0,1,524,575.2V459.59a18.38,18.38,0,0,1,3.44-10.74l4.43-4.4a18.4,18.4,0,0,1,10.63-3.36h8.82V548.4a18.49,18.49,0,0,0,18.5,18.5h18.5A76,76,0,0,0,626.41,556.73Z" transform="translate(-519.51 -401.88)"/><path class="cls-1" d="M664.63,490.59A76.1,76.1,0,0,1,640.76,546l-25.14,24.66a77,77,0,0,0,10.79-14A76.33,76.33,0,0,0,561,441.09h-18.5a18.4,18.4,0,0,0-10.63,3.36L556,420.53a18.45,18.45,0,0,1,13.86-6.25h18.5A76.31,76.31,0,0,1,664.63,490.59Z" transform="translate(-519.51 -401.88)"/><line class="cls-2" x1="37.42" y1="17.7" x2="36.46" y2="18.65"/><line class="cls-2" x1="122.14" y1="143.27" x2="121.25" y2="144.14"/><text class="cls-3" transform="translate(238.99 168.8)">Demos</text></svg>