<?xml version="1.0" encoding="utf-8"?>
<!-- Generator: Adobe Illustrator 16.0.0, SVG Export Plug-In . SVG Version: 6.00 Build 0)  -->
<!DOCTYPE svg PUBLIC "-//W3C//DTD SVG 1.1//EN" "http://www.w3.org/Graphics/SVG/1.1/DTD/svg11.dtd">
<svg version="1.1" id="Capa_1" xmlns="http://www.w3.org/2000/svg" xmlns:xlink="http://www.w3.org/1999/xlink" x="0px" y="0px"
	 width="960px" height="380px" viewBox="0 0 960 380" enable-background="new 0 0 960 380" xml:space="preserve">
<g>
	<linearGradient id="SVGID_1_" gradientUnits="userSpaceOnUse" x1="155.5" y1="295.5352" x2="155.5" y2="70.288">
		<stop  offset="0" style="stop-color:#22C7CF"/>
		<stop  offset="1" style="stop-color:#80E5EA"/>
	</linearGradient>
	<path fill="url(#SVGID_1_)" d="M252,154.445v57.821c0,47.9-39.438,86.733-87.337,86.733H81.978c-9.13,0-16.948-5.29-20.707-12.97
		C59.769,282.961,59,279.515,59,275.871V90.841c0-3.642,0.769-6.944,2.271-10.015C65.03,73.147,72.848,68,81.978,68h82.685
		C212.563,68,252,106.545,252,154.445z"/>
	<path fill="none" stroke="#6136D9" stroke-width="50" stroke-linecap="round" stroke-miterlimit="10" d="M45.112,174.595"/>
	<g>
		<g>
			<linearGradient id="SVGID_2_" gradientUnits="userSpaceOnUse" x1="45.1362" y1="266.1973" x2="301.436" y2="9.8975">
				<stop  offset="0" style="stop-color:#0B308D"/>
				<stop  offset="1" style="stop-color:#3563D7"/>
			</linearGradient>
			<path fill="url(#SVGID_2_)" d="M32.059,273.559c-5.18,0-10.359-1.976-14.311-5.927c-7.903-7.905-7.903-20.718,0-28.622
				l54.314-54.313c3.385-3.639,17.911-17.82,39.152-18.528c10.379-0.347,26.049,2.533,41.731,18.214
				c7.903,7.902,7.903,20.717,0,28.621c-7.904,7.902-20.717,7.902-28.621,0c-4.35-4.349-8.317-6.489-11.763-6.381
				c-5.357,0.178-10.599,5.344-10.645,5.396l-0.443,0.509l-55.104,55.105C42.417,271.583,37.237,273.559,32.059,273.559z"/>
		</g>
		<g>
			<linearGradient id="SVGID_3_" gradientUnits="userSpaceOnUse" x1="79.0044" y1="299.6943" x2="334.9198" y2="43.7789">
				<stop  offset="0" style="stop-color:#0B308D"/>
				<stop  offset="1" style="stop-color:#3563D7"/>
			</linearGradient>
			<path fill="url(#SVGID_3_)" d="M166.798,231c-0.033,0-0.066,0-0.099,0c-23.81-1-40.595-16.238-42.431-18.088l28.734-28.49
				c0,0-0.062-0.056-0.182-0.172c1.19,1.136,5.305,4.387,9.985,5.734c3.963,1.142,8.958,1.371,15.933-5.604
				c7.903-7.902,20.717-7.902,28.621,0c7.904,7.904,7.904,20.684,0.001,28.588C192.438,227.89,177.083,231,166.798,231z"/>
		</g>
		<g>
			<linearGradient id="SVGID_4_" gradientUnits="userSpaceOnUse" x1="85.3413" y1="306.4023" x2="341.6397" y2="50.1039">
				<stop  offset="0" style="stop-color:#0B308D"/>
				<stop  offset="1" style="stop-color:#3563D7"/>
			</linearGradient>
			<path fill="url(#SVGID_4_)" d="M193.048,218.931c-5.18,0-10.357-1.976-14.311-5.928c-7.903-7.903-7.903-20.719,0.001-28.621
				l76.162-76.161c7.903-7.903,20.717-7.904,28.621,0c7.902,7.904,7.902,20.717-0.001,28.62l-76.161,76.161
				C203.407,216.954,198.227,218.931,193.048,218.931z"/>
		</g>
		<g>
			<linearGradient id="SVGID_5_" gradientUnits="userSpaceOnUse" x1="98.2471" y1="319.3779" x2="354.7493" y2="62.8757">
				<stop  offset="0" style="stop-color:#0B308D"/>
				<stop  offset="1" style="stop-color:#3563D7"/>
			</linearGradient>
			<path fill="url(#SVGID_5_)" d="M278.5,177.285c-6.866,0-12.5-5.566-12.5-12.431v-51.462c0-6.866,5.634-12.432,12.5-12.432
				c6.867,0,12.5,5.565,12.5,12.432v51.462C291,171.719,285.367,177.285,278.5,177.285z"/>
		</g>
		<g>
			<linearGradient id="SVGID_6_" gradientUnits="userSpaceOnUse" x1="72.0107" y1="293.752" x2="328.5104" y2="37.2523">
				<stop  offset="0" style="stop-color:#0B308D"/>
				<stop  offset="1" style="stop-color:#3563D7"/>
			</linearGradient>
			<path fill="url(#SVGID_6_)" d="M277.993,126h-51.461c-6.866,0-12.431-5.635-12.431-12.5c0-6.866,5.565-12.5,12.431-12.5h51.461
				c6.866,0,12.432,5.634,12.432,12.5C290.425,120.365,284.859,126,277.993,126z"/>
		</g>
		<g>
			<linearGradient id="SVGID_7_" gradientUnits="userSpaceOnUse" x1="85.2393" y1="306.3164" x2="341.5247" y2="50.031">
				<stop  offset="0" style="stop-color:#0B308D"/>
				<stop  offset="1" style="stop-color:#3563D7"/>
			</linearGradient>
			<path fill="url(#SVGID_7_)" d="M277.808,177.285c-3.181,0-6.363-1.214-8.79-3.642l-51.107-51.106
				c-4.855-4.855-4.855-12.726,0-17.581c4.854-4.855,12.726-4.855,17.582,0l51.106,51.106c4.855,4.854,4.855,12.725,0,17.581
				C284.172,176.071,280.99,177.285,277.808,177.285z"/>
		</g>
	</g>
</g>
<text transform="matrix(1 0 0 1 360.9043 246.123)" font-family="'AbeatbyKai'" font-size="175.4726">Demos</text>
</svg>
