<?xml version="1.0" encoding="utf-8"?>
<!-- Generator: Adobe Illustrator 16.0.0, SVG Export Plug-In . SVG Version: 6.00 Build 0)  -->
<!DOCTYPE svg PUBLIC "-//W3C//DTD SVG 1.1//EN" "http://www.w3.org/Graphics/SVG/1.1/DTD/svg11.dtd">
<svg version="1.1" id="Capa_1" xmlns="http://www.w3.org/2000/svg" xmlns:xlink="http://www.w3.org/1999/xlink" x="0px" y="0px"
	 width="1080px" height="1080px" viewBox="0 0 1080 1080" enable-background="new 0 0 1080 1080" xml:space="preserve">
<g>
	<linearGradient id="SVGID_1_" gradientUnits="userSpaceOnUse" x1="211" y1="650.4453" x2="211" y2="419.3476">
		<stop  offset="0" style="stop-color:#22C7CF"/>
		<stop  offset="1" style="stop-color:#80E5EA"/>
	</linearGradient>
	<path fill="url(#SVGID_1_)" d="M310,505.715v59.314C310,614.165,269.832,654,220.696,654h-84.818
		c-9.366,0-17.538-5.427-21.394-13.304c-1.542-3.149-2.484-6.685-2.484-10.422V440.47c0-3.736,0.942-7.143,2.484-10.293
		C118.339,422.3,126.512,417,135.877,417h84.818C269.832,417,310,456.58,310,505.715z"/>
	<path fill="none" stroke="#6136D9" stroke-width="50" stroke-linecap="round" stroke-miterlimit="10" d="M98.061,526.385"/>
	<g>
		<g>
			<linearGradient id="SVGID_2_" gradientUnits="userSpaceOnUse" x1="98.0859" y1="620.3516" x2="360.9993" y2="357.4382">
				<stop  offset="0" style="stop-color:#0B308D"/>
				<stop  offset="1" style="stop-color:#3563D7"/>
			</linearGradient>
			<path fill="url(#SVGID_2_)" d="M84.67,627.902c-5.313,0-10.626-2.027-14.68-6.08c-8.107-8.108-8.107-21.252,0-29.36
				l55.716-55.715c3.473-3.732,18.373-18.28,40.162-19.006c10.647-0.356,26.721,2.599,42.808,18.684
				c8.107,8.106,8.107,21.252,0,29.359c-8.107,8.106-21.251,8.106-29.359,0c-4.462-4.462-8.532-6.657-12.066-6.546
				c-5.496,0.183-10.873,5.482-10.92,5.535l-0.455,0.521L99.35,621.822C95.296,625.875,89.983,627.902,84.67,627.902z"/>
		</g>
		<g>
			<linearGradient id="SVGID_3_" gradientUnits="userSpaceOnUse" x1="132.5425" y1="655.2363" x2="395.8973" y2="391.8815">
				<stop  offset="0" style="stop-color:#0B308D"/>
				<stop  offset="1" style="stop-color:#3563D7"/>
			</linearGradient>
			<path fill="url(#SVGID_3_)" d="M222.886,585c-0.034,0-0.068,0-0.102,0c-24.424-1-41.643-17.034-43.526-18.932l29.475-29.414
				c0,0-0.063-0.152-0.187-0.271c1.221,1.165,5.442,4.452,10.243,5.835c4.066,1.172,9.189,1.383,16.344-5.772
				c8.107-8.106,21.252-8.118,29.359-0.012c8.108,8.107,8.108,21.589,0.001,29.696C249.188,581.438,233.438,585,222.886,585z"/>
		</g>
		<g>
			<linearGradient id="SVGID_4_" gradientUnits="userSpaceOnUse" x1="139.3276" y1="661.5918" x2="402.2378" y2="398.6816">
				<stop  offset="0" style="stop-color:#0B308D"/>
				<stop  offset="1" style="stop-color:#3563D7"/>
			</linearGradient>
			<path fill="url(#SVGID_4_)" d="M249.814,571.864c-5.314,0-10.625-2.026-14.68-6.08c-8.107-8.107-8.107-21.253,0.001-29.359
				l78.126-78.126c8.107-8.107,21.252-8.107,29.36,0c8.106,8.107,8.106,21.251-0.001,29.359l-78.126,78.126
				C260.44,569.837,255.126,571.864,249.814,571.864z"/>
		</g>
		<g>
			<linearGradient id="SVGID_5_" gradientUnits="userSpaceOnUse" x1="151.7217" y1="675.2773" x2="415.3743" y2="411.6248">
				<stop  offset="0" style="stop-color:#0B308D"/>
				<stop  offset="1" style="stop-color:#3563D7"/>
			</linearGradient>
			<path fill="url(#SVGID_5_)" d="M337,529.145c-7.043,0-13-5.71-13-12.752v-52.79c0-7.043,5.957-12.752,13-12.752
				c7.044,0,13,5.709,13,12.752v52.79C350,523.435,344.044,529.145,337,529.145z"/>
		</g>
		<g>
			<linearGradient id="SVGID_6_" gradientUnits="userSpaceOnUse" x1="126.3179" y1="647.7393" x2="388.4908" y2="385.5663">
				<stop  offset="0" style="stop-color:#0B308D"/>
				<stop  offset="1" style="stop-color:#3563D7"/>
			</linearGradient>
			<path fill="url(#SVGID_6_)" d="M336.951,476h-52.789c-7.043,0-12.752-5.457-12.752-12.5s5.709-12.5,12.752-12.5h52.789
				c7.043,0,12.752,5.457,12.752,12.5S343.994,476,336.951,476z"/>
		</g>
		<g>
			<linearGradient id="SVGID_7_" gradientUnits="userSpaceOnUse" x1="139.2168" y1="661.5127" x2="402.1259" y2="398.6036">
				<stop  offset="0" style="stop-color:#0B308D"/>
				<stop  offset="1" style="stop-color:#3563D7"/>
			</linearGradient>
			<path fill="url(#SVGID_7_)" d="M336.761,529.145c-3.263,0-6.527-1.245-9.017-3.735l-52.425-52.425
				c-4.98-4.98-4.98-13.055,0-18.035c4.979-4.98,13.055-4.98,18.035,0l52.425,52.425c4.98,4.979,4.98,13.054,0,18.034
				C343.289,527.899,340.024,529.145,336.761,529.145z"/>
		</g>
	</g>
</g>
<text transform="matrix(1 0 0 1 422 599.7578)" font-family="'AbeatbyKai'" font-size="180">Demos</text>
</svg>
