<?xml version="1.0" encoding="utf-8"?>
<!-- Generator: Adobe Illustrator 21.1.0, SVG Export Plug-In . SVG Version: 6.00 Build 0)  -->
<svg version="1.1" id="Layer_1" xmlns="http://www.w3.org/2000/svg" xmlns:xlink="http://www.w3.org/1999/xlink" x="0px" y="0px"
	 viewBox="0 0 512 512" style="enable-background:new 0 0 512 512;" xml:space="preserve">
<style type="text/css">
	.st0{fill:#5E5454;}
	.st1{fill:#FFEBD2;}
	.st2{fill:#FFD2AF;}
	.st3{fill:#464655;}
	.st4{fill:#9F8976;}
</style>
<polygon class="st0" points="479,210.6 487.2,152.8 462.5,161 470.7,111.5 445.9,119.7 445.9,86.7 412.9,95 404.6,61.9 379.9,78.5 
	371.6,37.2 338.6,61.9 330.3,20.6 297.3,53.7 280.8,12.4 256,45.4 231.2,12.4 214.7,53.7 181.7,20.6 173.4,61.9 140.4,37.2 
	132.1,78.5 107.4,61.9 99.1,95 66.1,86.7 66.1,119.7 41.3,111.5 49.5,161 24.8,152.8 33,210.6 "/>
<path class="st1" d="M512,293.2h-33c0,0,24.8-56.8,24.8-82.6h-49.5l-57.9-14.3c9-14.6,10.4-36.7,10.4-36.7s-19.3,14.5-43.4,17.9
	v-41.3c-17.9,21-31.6,32.9-46.8,44.7c-1.7-8.3-8.3-22-11-26.1c-0.4-0.6-49.5,39.2-49.5,55.7c0-16.5-49.2-56.3-49.5-55.7
	c-2.8,4.1-9.3,17.9-11,26.1c-15.2-11.9-28.9-23.7-46.8-44.7v41.3c-24.1-3.4-43.4-17.9-43.4-17.9s1.4,22,10.4,36.7l-57.9,14.3H8.3
	c0,25.8,24.8,82.6,24.8,82.6H0l24.8,41.3L8.3,351c0,0,17.5,20.1,49.5,24.8L33,400.5c57.8,8.3,163.6,99.1,223,99.1
	s165.2-90.8,223-99.1l-24.8-24.8c32-4.6,49.5-24.8,49.5-24.8l-16.5-16.5L512,293.2z"/>
<path class="st2" d="M256,359.2c-57.8,0-99.1,44.3-99.1,44.3s24.8,66.5,99.1,96.1c74.3-29.6,99.1-96.1,99.1-96.1
	S313.8,359.2,256,359.2z"/>
<g>
	<circle class="st3" cx="165.2" cy="326.2" r="16.5"/>
	<circle class="st3" cx="346.8" cy="326.2" r="16.5"/>
</g>
<g>
	<ellipse class="st4" cx="256" cy="474.8" rx="33" ry="24.8"/>
	<path class="st4" d="M91.4,276.6c0-33,8.3-49.5,8.3-49.5l24.8,8.3v-33c-24.8-24.8-74.3-24.8-74.3-24.8S41.8,243.6,91.4,276.6"/>
	<path class="st4" d="M420.6,276.6c0-33-8.3-49.5-8.3-49.5l-24.8,8.3v-33c24.8-24.8,74.3-24.8,74.3-24.8S470.2,243.6,420.6,276.6"/>
</g>
</svg>
